<svg width="761" height="761" xmlns="http://www.w3.org/2000/svg" xmlns:xlink="http://www.w3.org/1999/xlink" xml:space="preserve" overflow="hidden"><g transform="translate(-1512 -674)"><path d="M47.5625 47.5625 47.5625 237.812 142.687 237.812 142.687 142.687 237.812 142.687 237.812 47.5625ZM523.187 47.5625 523.187 142.687 618.312 142.687 618.312 237.812 713.437 237.812 713.437 47.5625ZM190.25 190.25 190.25 570.75 570.75 570.75 570.75 190.25ZM285.375 285.375 475.625 285.375 475.625 475.625 285.375 475.625ZM47.5625 523.187 47.5625 713.437 237.812 713.437 237.812 618.312 142.687 618.312 142.687 523.187ZM618.312 523.187 618.312 618.312 523.187 618.312 523.187 713.437 713.437 713.437 713.437 523.187Z" fill="#8DA5F3" transform="matrix(1 0 0 1 1512 674)"/><path d="M1740 1145C1740 1017.97 1842.97 915 1970 915 2097.03 915 2200 1017.97 2200 1145 2200 1272.03 2097.03 1375 1970 1375 1968.08 1375 1966.17 1374.98 1964.25 1374.93L1967.2 1257.2C2029.16 1258.74 2080.65 1209.77 2082.2 1147.8 2083.74 1085.84 2034.77 1034.35 1972.8 1032.8 1910.84 1031.26 1859.35 1080.23 1857.8 1142.2 1857.78 1143.13 1857.77 1144.07 1857.77 1145Z" fill="#84E291" fill-rule="evenodd"/><path d="M1982 1428 1811 1312 1982 1196Z" fill="#84E291" fill-rule="evenodd"/></g></svg>